<svg width="1920" height="117" viewBox="0 0 1920 117" fill="none" xmlns="http://www.w3.org/2000/svg">
<path fill-rule="evenodd" clip-rule="evenodd" d="M0 23.8833C0 23.8833 98.9163 -11.5662 180.179 3.91176C261.442 19.3897 407.982 66.8217 559.851 73.8117C710.387 79.8032 862.256 49.8657 1014.12 28.8957C1165.99 8.92427 1317.86 21.9057 1469.73 49.8657C1620.27 76.8271 1772.14 93.7832 1848.07 114.753L1920 111.5L1920 117L1848.07 117C1772.14 117 1620.27 117 1469.73 117C1317.86 117 1165.99 117 1014.12 117C862.256 117 710.387 117 559.851 117C407.982 117 256.114 117 180.179 117L0 117L0 23.8833Z" fill="#C5C4D1"/>
<path fill-rule="evenodd" clip-rule="evenodd" d="M3.85176e-05 16.0001L76.566 37.0001C153.132 57.0001 356.907 51.0001 510.039 51.0001C661.828 51.0001 764.316 113 917.448 99.0001C1070.58 86.0001 1215.02 86.1482 1376.84 64.0001C1538.67 41.852 1681.76 30.0001 1758.33 23.0001C1834.9 16.0001 1920 42 1920 42L1920 117L1758.33 117C1681.76 117 1528.63 117 1376.84 117C1223.71 117 1070.58 117 917.448 117C764.316 117 611.184 117 459.396 117C306.264 117 153.132 117 76.566 117L0 117L3.85176e-05 16.0001Z" fill="#E7E6EB"/>
<path fill-rule="evenodd" clip-rule="evenodd" d="M3.73916e-05 87.0001L82.1827 92.0001C162.364 101 316.343 107 483.091 99.0001C649.838 91.0001 802.638 66.0001 963.002 66.0001C1123.36 66.0001 1283.73 92.0001 1444.09 92.0001C1603.28 92.0001 1839.82 88.0001 1920 47.0001L1920 107V117L1843.82 117C1763.64 117 1603.28 117 1444.09 117C1283.73 117 1123.36 117 963.002 117C802.638 117 642.275 117 483.091 117C322.728 117 162.364 117 82.1827 117L0 117L3.73916e-05 87.0001Z" fill="#FAFAFA"/>
</svg>
